<svg xmlns="http://www.w3.org/2000/svg" viewBox="0 0 268 28" fill="none" role="img" aria-label="AMD Radeon Cloud docs">
  <!-- A -->
  <path d="M13.4 2.6 4 25.4h4.3l1.8-4.6h9.3l1.8 4.6H25L15.6 2.6h-2.2Zm-1.9 14.6 3-7.6 3 7.6h-6Z" fill="#e8112d"/>
  <!-- M -->
  <path d="M27.5 2.6v22.8h4V9.9l6 9.1h1.4l6-9.1v15.5h4V2.6h-3.6l-7.1 10.7L31.1 2.6h-3.6Z" fill="#e8112d"/>
  <!-- D -->
  <path d="M52.6 2.6v22.8h9.6c6.6 0 11.2-4.7 11.2-11.4S68.8 2.6 62.2 2.6h-9.6Zm4 3.6h5.2c4.5 0 7.5 3.1 7.5 7.8s-3 7.8-7.5 7.8h-5.2V6.2Z" fill="#e8112d"/>
  <text x="82" y="20.4" font-family="Space Grotesk, IBM Plex Sans, sans-serif" font-size="17" font-weight="600" letter-spacing="-0.5" fill="#f7f8fa">Radeon Cloud</text>
  <rect x="251" y="8" width="1" height="13" fill="#2a2f39"/>
  <text x="258" y="19" font-family="IBM Plex Mono, monospace" font-size="10" font-weight="500" fill="#868d9b">docs</text>
</svg>
